<svg id="Layer_1" data-name="Layer 1" xmlns="http://www.w3.org/2000/svg" viewBox="0 0 2000 1000"><defs><style>.cls-1{fill:#fff;}.cls-2{fill:#ff4122;}</style></defs><rect class="cls-1" width="2000" height="973"/><polygon points="111.45 897.05 219.28 706.96 1491.7 706.96 1491.7 912.39 111.45 897.05"/><rect class="cls-2" x="1623.15" y="289.35" width="171.83" height="586.72" rx="2.51" transform="translate(-79.89 827.87) rotate(-26.63)"/><path d="M1561.73,372.07c.88,0,5.65,2.42,8.9,4,2.89,1.38,5.94,2.75,8.36,1.54,1.81-.9,2.78-2.45,1.81-4.38-1.2-2.41-3.34-2.24-5.9-1l-2.81-5.61c5.32-2.67,10-1,12.8,4.6s1,9.91-3.14,12c-3.85,1.93-7.92-.11-10.88-1.63-3.72-1.93-5.72-3.17-6.49-3l5.24,10.44-4,2-8.38-16.7Z"/><path d="M1578.23,387.55c6.23-3.13,13-3.57,16,2.57s-1.29,11.26-7.53,14.38-12.94,3.54-16-2.58S1572,390.67,1578.23,387.55Zm5.67,11.3c5.7-2.86,7.19-4.94,6.31-6.7s-3.45-1.83-9.15,1-7.19,4.94-6.3,6.72,3.44,1.84,9.14-1Z"/><path d="M1580.9,410.29c.88,0,5.65,2.41,8.9,4,2.89,1.38,5.94,2.76,8.36,1.55,1.8-.9,2.78-2.45,1.81-4.39-1.21-2.4-3.34-2.23-5.9-1l-2.81-5.6c5.32-2.67,10-1,12.8,4.6s1,9.91-3.15,12c-3.84,1.93-7.91-.11-10.88-1.63-3.71-1.93-5.71-3.17-6.48-3l5.24,10.44-4,2-8.38-16.7Z"/><path d="M1597.4,425.76c6.23-3.12,12.95-3.56,16,2.58s-1.29,11.25-7.52,14.38-12.94,3.54-16-2.58S1591.17,428.89,1597.4,425.76Zm5.67,11.31c5.7-2.86,7.19-4.94,6.31-6.7s-3.46-1.83-9.16,1-7.18,4.94-6.29,6.72,3.44,1.84,9.14-1Z"/><rect x="879.35" y="251.01" width="267.54" height="629.84" rx="2.51"/><rect x="1373.77" y="95.25" width="133.77" height="785.6" rx="2.51"/><path class="cls-1" d="M1449.33,638.25h-2.39v-5.86h2.28c7.14,0,10.69-4,10.69-11.17,0-7.37-3-11.19-8.59-11.19-5.86,0-8.42,5.28-11,12.9-2.86,8.49-6.73,14.94-15.18,14.94s-12.69-6.51-12.69-16.42c0-10.38,4.91-17,14.52-17h2.84v5.83h-2.46c-7.07,0-10.38,4-10.38,11.05,0,6.72,2.92,10.59,8.24,10.59,6,0,8.7-5.55,11.14-13.14,3-9.25,6.35-14.74,14.74-14.74s13.25,6.35,13.25,17S1459.38,638.25,1449.33,638.25Z"/><path class="cls-1" d="M1445.52,593.78c-11.25,0-18.67-7.8-18.67-18.78s7.37-18.77,18.67-18.77,18.86,7.84,18.86,18.77S1456.76,593.78,1445.52,593.78Zm0-31.64c-8.43,0-14.26,5.55-14.26,12.86s5.83,12.87,14.26,12.87S1460,582.32,1460,575,1454,562.14,1445.52,562.14Z"/><path class="cls-1" d="M1427.22,545.16v-5.91h7a14.75,14.75,0,0,1-7.37-13.14c0-8.49,4.92-12.11,13.35-12.11h23.67v5.86h-22.11c-5.72,0-10.14,2-10.14,8.59a10.49,10.49,0,0,0,10.18,10.79h22.08v5.87Z"/><path class="cls-1" d="M1450,500.88h-22.82V495h21.38c5.59,0,10.94-1.31,10.94-8.1A10.61,10.61,0,0,0,1449,476.29h-21.74v-5.86h36.64v5.86H1457a13.84,13.84,0,0,1,7.37,12.84C1464.32,499.6,1456.28,500.88,1450,500.88Z"/><path class="cls-1" d="M1468.35,444.68l-4.1-3c-1,9.41-7.8,16.52-18.73,16.52-11.8,0-18.67-8.35-18.67-18.87,0-11,7.17-16.87,12.93-16.87h.25v5.83a3.55,3.55,0,0,0-.86.1c-4.29.76-7.84,5.07-7.84,11.06,0,6.86,5,12.79,14.19,12.79s14.38-5.89,14.38-12.79c0-7.46-4.69-11-8.52-11.14v-5.78c5.76,0,12.49,5.11,13,15.6l3,2.1a13.22,13.22,0,0,1-.76-4.91c0-2.76.72-5.63,3.2-5.63,3.69,0,4.67,6.53,4.67,11.6a27.35,27.35,0,0,1-.7,6.56l-2.69-1.7a25.12,25.12,0,0,0,.7-5.86c0-3.18-.45-6.56-1.9-6.56-.94,0-1.42,1.23-1.42,3.11a14.69,14.69,0,0,0,.86,4.79Z"/><path class="cls-1" d="M1409.94,389v-5.9h23.67a15.14,15.14,0,0,1-6.76-12.7c0-8.9,6.58-15.83,18.67-15.83,12.28,0,18.86,6.79,18.86,15.83a15.08,15.08,0,0,1-6.9,12.7h6.39V389Zm32.13-5.9h6.86c6,0,10.59-5.28,10.59-11.17,0-6.49-4.91-11.33-14-11.33s-14,4.84-14,11.33c0,5.85,4.56,11.17,10.53,11.17Z"/><path class="cls-1" d="M1421.36,323.52a2.49,2.49,0,1,1,2.49-2.48A2.49,2.49,0,0,1,1421.36,323.52Zm0,9.1a2.46,2.46,0,1,1,2.46-2.45A2.46,2.46,0,0,1,1421.36,332.62Zm24.16,11.81c-11.25,0-18.67-7.8-18.67-18.77s7.37-18.77,18.67-18.77,18.86,7.84,18.86,18.77S1456.76,344.43,1445.52,344.43Zm0-31.64c-8.43,0-14.26,5.56-14.26,12.87s5.83,12.87,14.26,12.87S1460,333,1460,325.66,1454,312.79,1445.52,312.79Z"/><path class="cls-1" d="M1455.59,295.23h-45.65v-5.87h44.89c4.27,0,5.07-1.83,5.07-4.07a13.31,13.31,0,0,0-.42-3.32h4.39a20.75,20.75,0,0,1,.42,4C1464.29,289.93,1463.56,295.23,1455.59,295.23Z"/><path class="cls-1" d="M1421.36,255.61a2.46,2.46,0,1,1,2.46-2.46A2.46,2.46,0,0,1,1421.36,255.61Zm0,9.11a2.46,2.46,0,1,1,2.46-2.46A2.46,2.46,0,0,1,1421.36,264.72Zm28.68,8.1h-22.82v-5.89h21.38c5.59,0,10.94-1.31,10.94-8.11A10.59,10.59,0,0,0,1449,248.19h-21.74v-5.86h36.64v5.85H1457a13.83,13.83,0,0,1,7.37,12.83C1464.32,271.51,1456.28,272.82,1450,272.82Z"/><path class="cls-1" d="M1427.22,228.83V223H1434a12.42,12.42,0,0,1-7.13-11.76c0-6.32,3.07-9.24,7.9-10.28a12.28,12.28,0,0,1-7.9-12c0-7.9,4.73-10.91,12.42-10.91h24.56v5.87h-22.67c-3.59,0-9.6.27-9.6,7.37s6.77,9.21,10.7,9.21h21.57v5.84h-22.48c-3.68,0-9.74.4-9.74,7.27s6.73,9.38,11.22,9.38h21v5.87Z"/><path class="cls-1" d="M1421.36,147.47a2.46,2.46,0,1,1,2.46-2.46A2.46,2.46,0,0,1,1421.36,147.47Zm0,9.11a2.46,2.46,0,1,1,2.46-2.46,2.46,2.46,0,0,1-2.46,2.46Zm28.68,8.11h-22.82v-5.9h21.38c5.59,0,10.94-1.31,10.94-8.11A10.59,10.59,0,0,0,1449,140.05h-21.74v-5.86h36.64v5.86H1457a13.83,13.83,0,0,1,7.37,12.83c0,10.55-8.08,11.78-14.32,11.78Z"/><rect x="190.14" y="613.1" width="476.48" height="119.55" rx="2.51"/><path class="cls-1" d="M258.52,661.41l-2.36,11h16.22l-1.52,6.9H254.67l-2.36,11.18h19.78l-1.41,6.86H242l9.07-42.83h28.64l-1.45,6.86Z"/><path class="cls-1" d="M323.2,661.41h-12l-7.62,36h-9.11l7.62-36h-12l1.41-6.86h33.14Z"/><path class="cls-1" d="M364.32,681.34a20,20,0,0,1-2.25,5.68,22.59,22.59,0,0,1-4.43,5.44,21.63,21.63,0,0,1-6.59,4.07,23.34,23.34,0,0,1-8.72,1.54q-8.43,0-12.58-4.77t-4.16-12.44a30,30,0,0,1,1.74-10.21,26.92,26.92,0,0,1,5-8.62,23.47,23.47,0,0,1,18.24-8.13,19,19,0,0,1,9.22,2,13.66,13.66,0,0,1,5.46,5.17,13.23,13.23,0,0,1,1.8,6.64,13.39,13.39,0,0,1-.33,2.91h-9.14a11.48,11.48,0,0,0,.18-1.14,10.82,10.82,0,0,0,.07-1.18,7.11,7.11,0,0,0-2.05-5.14c-1.37-1.42-3.37-2.12-6-2.12a11.82,11.82,0,0,0-6.55,1.81,15.58,15.58,0,0,0-4.7,4.79,22.62,22.62,0,0,0-2.81,6.54,27.69,27.69,0,0,0-.93,7q0,9.76,8.28,9.76a11.57,11.57,0,0,0,5.7-1.4A13.15,13.15,0,0,0,353,686a11.63,11.63,0,0,0,2.17-4.64Z"/><path class="cls-1" d="M388.53,661.41l-2.36,11h16.22l-1.52,6.9H384.68l-2.36,11.18H402.1l-1.41,6.86H372.05l9.07-42.83h28.64l-1.45,6.86Z"/><path class="cls-1" d="M453.21,661.41h-12l-7.62,36h-9.11l7.62-36h-12l1.41-6.86h33.14Z"/><path class="cls-1" d="M472.73,661.41l-2.35,11H486.6l-1.52,6.9H468.89l-2.36,11.18h19.78l-1.42,6.86H456.26l9.07-42.83H494l-1.45,6.86Z"/><path class="cls-1" d="M497.92,697.38,507,654.55h18.83q6.36,0,9.46,2.41a7.94,7.94,0,0,1,3.1,6.63,13.74,13.74,0,0,1-1.52,6.24,14.75,14.75,0,0,1-4.12,5,10.7,10.7,0,0,1-5.83,2.27,8.59,8.59,0,0,1,4.56,1.5,4.76,4.76,0,0,1,1.83,4.12,14,14,0,0,1-.34,2.72c-.23,1.12-.5,2.32-.8,3.6s-.58,2.51-.82,3.68a15.1,15.1,0,0,0-.36,2.92,3.66,3.66,0,0,0,.33,1.71h-9.08a4,4,0,0,1-.29-1.71,17.86,17.86,0,0,1,.49-3.64c.33-1.52.65-3,1-4.43a15.87,15.87,0,0,0,.49-3.22q0-3.81-5.55-3.81h-7.73L507,697.38ZM512,673.75h8.31a8.13,8.13,0,0,0,6-2.34,7.71,7.71,0,0,0,2.32-5.65c0-2.92-2-4.39-5.91-4.39h-8.1Z"/><path class="cls-1" d="M551.35,697.38h-9.51l21.45-42.87h13.94l3.08,42.87h-9.14l-.55-10H556.25Zm8.31-16.88h10.6l-1-19.56Z"/><path class="cls-1" d="M1444.64,806.18v-30c-13.2,0-23.91,2.36-23.91,21.61,0,11.82,3.24,13.81,5.51,15s9.35.94,9.35,4.8.5,5.8,1.8,6.51a18,18,0,0,0,7.25,1.42v-12.2c-.65,0-1.56.41-2.08.41s-.79-.14-.79-.63a15.39,15.39,0,0,1,1-3.72C1443.27,808.28,1444.28,806.18,1444.64,806.18Zm-9.39-.83a5.6,5.6,0,1,1,5.61-5.6,5.6,5.6,0,0,1-5.61,5.6Z"/><path class="cls-1" d="M1438.14,827.21h0a1.39,1.39,0,0,1,1.07,1.66l-.33,1.51a1.39,1.39,0,0,1-1.66,1.07h0a1.4,1.4,0,0,1-1.07-1.67l.33-1.5A1.39,1.39,0,0,1,1438.14,827.21Z"/><path class="cls-1" d="M1442.29,827.44h0a1.39,1.39,0,0,1,1.39,1.39v1.79a1.39,1.39,0,0,1-1.39,1.39h0a1.39,1.39,0,0,1-1.39-1.39v-1.79A1.39,1.39,0,0,1,1442.29,827.44Z"/><path class="cls-1" d="M1446.46,809.35a15.39,15.39,0,0,1,1,3.72c0,.49-.25.63-.78.63s-1.43-.41-2.09-.41v12.2a17.86,17.86,0,0,0,7.25-1.42c1.31-.71,1.8-2.66,1.8-6.51s7.09-3.65,9.36-4.8,5.5-3.14,5.5-15c0-19.25-10.7-21.61-23.91-21.61v30C1445,806.18,1446,808.28,1446.46,809.35Zm2-9.6a5.6,5.6,0,1,1,5.6,5.6h0a5.6,5.6,0,0,1-5.63-5.57v0Z"/><path class="cls-1" d="M1452,831.48h0a1.4,1.4,0,0,1-1.66-1.07l-.33-1.51a1.39,1.39,0,0,1,1.07-1.66h0a1.4,1.4,0,0,1,1.67,1.07l.32,1.5A1.4,1.4,0,0,1,1452,831.48Z"/><path class="cls-1" d="M1447,832h0a1.39,1.39,0,0,1-1.39-1.39v-1.79a1.39,1.39,0,0,1,1.39-1.39h0a1.39,1.39,0,0,1,1.39,1.39v1.79A1.39,1.39,0,0,1,1447,832Z"/><rect class="cls-2" x="111.45" y="730.97" width="554.82" height="149.88" rx="2.51"/><rect class="cls-1" x="591.24" y="730.96" width="75.03" height="149.88"/><path class="cls-2" d="M628,837.49c-23.11-18.56-22.64-40.75-.06-58.78C650.55,796.24,651.17,819,628,837.49Zm12.51-29.6A12.52,12.52,0,1,0,628,820.65a12.7,12.7,0,0,0,12.5-12.76ZM628,784l-7,7.82H634.9Zm7,40.4H621l7,7.79Z"/><path class="cls-2" d="M621.83,808a5.56,5.56,0,0,1,4.58-6.19,6.44,6.44,0,0,1,4.64,11.91c-1.8.88-3.12,1.25-4.23-1.38C626.13,810.7,623.86,809.7,621.83,808Z"/><path class="cls-1" d="M170.29,804.51h33.4v8.33h-33.4v9.7h-6.24V794.79h6.24Z"/><path class="cls-1" d="M248.18,804.41h13.65v8.33H248.18l-26,11.74v-8.82L241,808.54l-18.78-7.09v-8.87Z"/><path class="cls-1" d="M320,821.64H280.34V808.07c0-9.05,5.78-14.43,13.25-14.43s13.57,5.46,13.57,14.43v5.22H320Zm-19-12.28a7,7,0,0,0-6.65-7.33h-.71c-4.59,0-7,3.09-7,7.33v3.93H301Z"/><path class="cls-1" d="M355.12,812.22V799.49h6.24v12.73h10.53V796.5h6.23v24.11H338.49V796.5h6.23v15.72Z"/><path class="cls-1" d="M486.87,808.13c0,11.2-8.7,17.25-20.23,17.25s-20.18-6-20.18-17.25c0-9.14,5.8-14.25,11.71-15.64a14,14,0,0,1,3.47-.46v8.38a10.23,10.23,0,0,0-1.56.11c-3.89.57-7.36,3.25-7.36,7.61,0,5.18,4.54,8.76,13.92,8.76s14-3.58,14-8.76c0-4.92-4.52-7.72-9-7.72V792C478.54,792,486.87,797.16,486.87,808.13Z"/><path class="cls-1" d="M524.76,826.21c-13.22,0-20.16-7.6-20.16-17.49s6.94-17.52,20.16-17.52S545,798.91,545,808.72,538,826.21,524.76,826.21Zm0-26.63c-10,0-13.89,4.14-13.89,9.14s3.86,9.11,13.89,9.11,14-4.14,14-9.11S534.73,799.58,524.76,799.58Z"/><rect class="cls-2" x="663.27" y="139.65" width="217.08" height="741.2" rx="2.51"/><path d="M770.56,208.46v11.28H785.9v8.92H770.56v11.45h19.07V249H758.51V199.53h31.12v8.93Z"/><path d="M768.67,318.86h-12V269.35h18a20.34,20.34,0,0,1,9.75,2.21,16.08,16.08,0,0,1,6.36,6,16.54,16.54,0,0,1,2.25,8.57,17.1,17.1,0,0,1-2.25,8.68,16.57,16.57,0,0,1-6.38,6.24,19.41,19.41,0,0,1-9.73,2.34h-5.94Zm0-24.34h4.7a7.28,7.28,0,0,0,5.35-2.16,8.41,8.41,0,0,0,2.16-6.2c0-2.7-.71-4.7-2.14-6a7.78,7.78,0,0,0-5.37-1.91h-4.7Z"/><path d="M758,388.68v-8.93h10V348.09H758v-8.92h32.09v8.92H780.06v31.66h10.07v8.93Z"/><path d="M759.84,458.49V409h12v40h18v9.53Z"/><path d="M774.07,529.15a22.52,22.52,0,0,1-11.4-2.94,20.86,20.86,0,0,1-8.13-8.66,34.1,34.1,0,0,1,0-28.06,20.73,20.73,0,0,1,8.1-8.59,24.05,24.05,0,0,1,22.9,0,20.73,20.73,0,0,1,8.1,8.59,34,34,0,0,1,0,28.06,21,21,0,0,1-8.16,8.66A22.4,22.4,0,0,1,774.07,529.15Zm0-9.3a9.16,9.16,0,0,0,5.17-1.56,10.66,10.66,0,0,0,3.78-5.15,33.33,33.33,0,0,0,0-19.25,10.47,10.47,0,0,0-3.8-5.07,9.43,9.43,0,0,0-10.3,0,10.47,10.47,0,0,0-3.8,5.07,26.42,26.42,0,0,0-1.42,9.62,26.71,26.71,0,0,0,1.42,9.65,10.66,10.66,0,0,0,3.8,5.13A9.17,9.17,0,0,0,774.07,519.85Z"/><path d="M773.42,599a20.47,20.47,0,0,1-10.91-2.9,19.39,19.39,0,0,1-7.4-8.56,32.64,32.64,0,0,1-2.67-14,30.1,30.1,0,0,1,3-14,21.1,21.1,0,0,1,8.06-8.71,21.87,21.87,0,0,1,11.31-3,21.4,21.4,0,0,1,9.1,1.75,17.81,17.81,0,0,1,9.41,10.1,16,16,0,0,1,1.06,5.37v.41H782.71V565a8.06,8.06,0,0,0-.92-3.72,8,8,0,0,0-2.68-3,7.59,7.59,0,0,0-4.32-1.19,9,9,0,0,0-4.95,1.53,10.79,10.79,0,0,0-3.86,5.1,26.14,26.14,0,0,0-1.49,9.79c0,4.36.48,7.71,1.44,10a9.4,9.4,0,0,0,3.76,4.82,9.75,9.75,0,0,0,4.9,1.33,11.2,11.2,0,0,0,4.57-.84,9,9,0,0,0,3-2,5.8,5.8,0,0,0,1.41-2.24v-3.49h-9v-8.32h19.64v25.34h-5.77l-1.21-5.6a7.51,7.51,0,0,1-1.83,2.56,12.77,12.77,0,0,1-4.4,2.7A20.18,20.18,0,0,1,773.42,599Z"/><path d="M793.15,650.19q0,9.33-5.12,14t-14,4.63q-8.85,0-14-4.63t-5.1-14V618.44h12v32c0,3,.54,5.23,1.6,6.76s2.88,2.3,5.45,2.3,4.41-.76,5.49-2.3,1.63-3.78,1.63-6.76v-32h12Z"/><path d="M770.56,697.19v11.27H785.9v8.93H770.56v11.45h19.07v8.93H758.51V688.26h31.12v8.93Z"/><path d="M756.87,821.39a4.92,4.92,0,1,1,7,0,4.91,4.91,0,0,1-7,0Z"/><path d="M769.33,808.93a4.91,4.91,0,1,1,7,0,4.91,4.91,0,0,1-7,0Z"/><path d="M781.78,796.49a4.92,4.92,0,1,1,7,0,4.93,4.93,0,0,1-7,0Z"/><path d="M756.91,789.53a4.92,4.92,0,1,1,0,7,4.91,4.91,0,0,1,0-7Z"/><path d="M769.37,802a4.91,4.91,0,1,1,0,7,4.91,4.91,0,0,1,0-7Z"/><path d="M781.81,814.44a4.92,4.92,0,1,1,0,7,4.93,4.93,0,0,1,0-7Z"/><rect class="cls-1" x="1143.93" y="208.97" width="229.8" height="671.88" rx="2.51"/><rect class="cls-2" x="1143.93" y="208.97" width="229.8" height="63.57" rx="2.51"/><path class="cls-2" d="M1327.67,853.49l-73.29-15.6V809.81c0-15.35,9.64-22.41,21.27-22.41,17.64,0,30,15.5,30,33.29v8l22.06,4.72Zm-36.92-32.9c0-7.34-5.76-12.91-13.26-12.91-5.27,0-8.2,3.78-8.2,8.34v5l21.46,4.57Z"/><path class="cls-2" d="M1306.15,790.06c-19.17,0-31.79-14.91-31.79-34.78,0-16.49,8.54-26.23,22.16-26.23,19.17,0,31.89,15,31.89,34.78C1328.46,780.31,1319.77,790.06,1306.15,790.06Zm-8.24-40.79c-5.52,0-8.9,2.54-8.9,7.65,0,8,7.16,12.87,15.7,12.87,5.62,0,9-2.43,9-7.6,0-7.91-7.31-12.93-15.8-12.93Z"/><path class="cls-2" d="M1256.72,700.33l6.51-5.46-6.51-8.2V674.4l12.92,15.16v13.37l-12.92,9.53Zm71-15v46.06l-14.06-3-23.8-28.71v22.8L1275,719.3V674.85l14.06,3,23.75,28.47V682.21Z"/><path class="cls-2" d="M1306.15,677c-19.17,0-31.79-14.9-31.79-34.78,0-16.49,8.54-26.23,22.16-26.23,19.17,0,31.89,15,31.89,34.79C1328.46,667.21,1319.77,677,1306.15,677Zm-8.24-40.76c-5.52,0-8.9,2.54-8.9,7.66,0,8,7.16,12.87,15.7,12.87,5.62,0,9-2.45,9-7.6C1313.76,641.21,1306.4,636.21,1297.91,636.21Z"/><path class="cls-2" d="M1307.1,612.62c-18.09,0-32.74-13.33-32.74-30.9,0-6.06,2.38-11,6.46-14.21L1250,561V540.87l77.66,16.54v20.08l-6.16-1.3a26.27,26.27,0,0,1,6.9,17C1328.46,605.12,1321.21,612.62,1307.1,612.62Zm5-28.62a12.46,12.46,0,0,0-9.39-11.82l-3.18-.71a19.07,19.07,0,0,0-2-.2c-5,0-7.4,4-7.4,8.05,0,7.45,5.71,12.47,13.41,12.47,5.5,0,8.53-3.28,8.53-7.8Z"/><path class="cls-2" d="M1262.53,536.59c-6.9,0-11.08-6.76-11.08-14,0-5.76,2.79-9.94,7.9-9.94,7,0,11,7,11,13.92C1270.33,532.37,1267.55,536.59,1262.53,536.59Zm12.37,1.24V517.91l52.77,11.18V549Z"/><path class="cls-2" d="M1313.46,517.7a20.47,20.47,0,0,1-3.48-.45V497.43c.3,0,.94.15,1.14.15,2.34,0,3.38-3.18,3.38-8.3,0-4.17-.79-8.74-3-8.74-1.59,0-2.24,3.08-3.53,11.87-1.24,8.35-5.46,20-15.1,20-13.37,0-18.53-15.9-18.53-30.66,0-13.66,5.56-24.74,15-24.74a24.81,24.81,0,0,1,3.33.4V477a11.82,11.82,0,0,0-1.19-.2c-2.29,0-3.38,2.74-3.38,7.31,0,4,.7,8.29,2.78,8.29,1.84,0,2.83-3.57,3.73-10.38,1.09-8.2,3.72-21.36,14.26-21.36,14.6,0,19.52,15.75,19.52,31.15C1328.46,505.08,1323.69,517.7,1313.46,517.7Z"/><circle class="cls-1" cx="1295.78" cy="272.51" r="26.24"/><path d="M1264.87,272.32a31.76,31.76,0,1,1,31.8,31.72h-.16a31.68,31.68,0,0,1-31.64-31.72Zm38-8.53a5.84,5.84,0,0,1,2.08-4.87c.48-.43,1-.82,1.46-1.26a3.63,3.63,0,0,0,1.17-3.41c-.28-1.81-1.61-2.69-3.09-3.36a15.42,15.42,0,0,0-9.14-1.4c-4.7.83-8.27,3.19-10,7.82a14.08,14.08,0,0,0,4.43,15.24c2.18,1.83,4.53,3.46,6.75,5.24,2.55,2.06,4.08,4.64,3.86,8-.14,2.11-1.3,3.19-3.37,2.76a27.36,27.36,0,0,1-4.65-1.57c-1.3-.53-1.32-.74-1.11-2.14a9.21,9.21,0,0,0-.26-4.8,3,3,0,0,0-3.14-2.25,3.41,3.41,0,0,0-3,2.82,5.81,5.81,0,0,0,2,5.5,13.48,13.48,0,0,0,1.26,1c-.45.38-.87.7-1.26,1.06a5.48,5.48,0,0,0-.69,7.72,3.33,3.33,0,0,0,.25.28,3,3,0,0,0,4.24.24,3,3,0,0,0,.91-1.52,9.07,9.07,0,0,0,.22-2.89,21.09,21.09,0,0,0-.52-2.63c-.16-.84.17-1.11,1-.84a4,4,0,0,1,.76.35c1.35.74,2.68,1.52,4,2.2a11.45,11.45,0,0,0,5.78,1.43c3.15-.17,5.18-2.48,4.73-5.49a2.58,2.58,0,0,0-1.58-2.3,2.67,2.67,0,0,0-2.79.62l-.33.3c0-2.44.68-3.72,3-5.29a4.07,4.07,0,0,0,1.25-5.52,2.12,2.12,0,0,0-2.43-1.06,13.93,13.93,0,0,0-1.85.83,5.38,5.38,0,0,1,2.86-5c2.06-1.18,2.32-2.91,1.68-5.07a2.29,2.29,0,0,0-2.79-1.64,2.23,2.23,0,0,0-.43.16,8,8,0,0,0-1.29.69Z"/><rect y="880.81" width="2000" height="119.19"/><path class="cls-2" d="M971.53,767.48h36.09V733.93h3.48v33.55h36.37V729.93H1051v41.88H968V729.93h3.49Z"/><path class="cls-2" d="M1051,705.93H994.75v14h-3.49v-14h-8.88a32.9,32.9,0,0,1-7-.76,20.09,20.09,0,0,1-6.52-2.61,13.86,13.86,0,0,1-4.81-5.14,17.18,17.18,0,0,1-1.82-8.41,19.24,19.24,0,0,1,.28-3.56,9.52,9.52,0,0,1,.56-2.11h3.48c-.15.48-.31,1.22-.5,2.19a16.72,16.72,0,0,0-.28,3.2c0,3.71.87,6.49,2.61,8.32a12.51,12.51,0,0,0,6.55,3.63,36.36,36.36,0,0,0,7.87.87h8.43V683.62h3.49v17.93H1051Z"/><path class="cls-2" d="M1051.63,652.09a13.92,13.92,0,0,1-1.15,5.7,8.83,8.83,0,0,1-4.08,4.19q-2.93,1.57-8.32,1.57H994.75V679.4h-3.49V666.7q0-2.19-.51-2.67c-.33-.32-1.29-.48-2.86-.48H973.67v-4.33h17.59V639.66h3.49v19.56H1037q5.4,0,8.26-1.71t2.87-6a16.19,16.19,0,0,0-.23-2.72,16.8,16.8,0,0,0-.45-2h3.49q.22.78.48,2.19A18.71,18.71,0,0,1,1051.63,652.09Z"/><path class="cls-2" d="M974.9,622.86a4.17,4.17,0,0,1-1.07,2.89,3.49,3.49,0,0,1-2.75,1.21,3.43,3.43,0,0,1-2.7-1.21,4.22,4.22,0,0,1-1.07-2.89,4.13,4.13,0,0,1,1.07-2.87,3.47,3.47,0,0,1,2.7-1.18,3.53,3.53,0,0,1,2.75,1.18A4.09,4.09,0,0,1,974.9,622.86Zm76.06,2.08h-59.7v-4.27H1051Z"/><path class="cls-2" d="M1051,600h-59.7v-4.33h13.49a26.27,26.27,0,0,1-6.35-4.21,24.74,24.74,0,0,1-5.62-7.2,20.91,20.91,0,0,1-2.31-10,21.77,21.77,0,0,1,.65-5.85,11.9,11.9,0,0,1,1-2.81l3.88,1.18a12.82,12.82,0,0,0-1,2.61,21,21,0,0,0,1.37,14,23.2,23.2,0,0,0,5,6.6,23.68,23.68,0,0,0,6.36,4.22,14.88,14.88,0,0,0,6,1.46H1051Z"/><path class="cls-2" d="M1051,517.91h-39.18a47.85,47.85,0,0,0-5.17.34,18.83,18.83,0,0,0-5.82,1.66,11.52,11.52,0,0,0-4.72,4.1c-1.26,1.86-1.89,4.43-1.89,7.73a16.3,16.3,0,0,0,2.17,8.74,17.3,17.3,0,0,0,5.42,5.6,23.27,23.27,0,0,0,6.77,3,25.34,25.34,0,0,0,6.16.9H1051v4.33h-59.7V550h11.41a21.28,21.28,0,0,1-8.77-7.28,19.93,19.93,0,0,1-3.43-11.77q0-7.59,3.46-11.5a16.8,16.8,0,0,1,9.64-5.14,21.16,21.16,0,0,1-9.33-7,19.58,19.58,0,0,1-3.77-12.31q0-8.82,4.87-13.18t14.13-4.35H1051v4.27h-39.52a46.45,46.45,0,0,0-4.92.31,18.85,18.85,0,0,0-5.73,1.57,10.86,10.86,0,0,0-4.72,4.16q-1.89,2.9-1.89,8.07a15.9,15.9,0,0,0,7.45,14.25,22.47,22.47,0,0,0,6.41,2.81,23.15,23.15,0,0,0,5.48.81H1051Z"/><path class="cls-2" d="M979.85,438.32,967.26,426v-5.85l12.59,14Zm71.11-29.9v4.38a5,5,0,0,1-1.1.67,15.8,15.8,0,0,1-2.22.9,23.36,23.36,0,0,1-6.18.85,21.77,21.77,0,0,1,7.7,9.61,34,34,0,0,1,2.81,13.88q0,10.52-4.53,16.61t-13,6.1q-8.27,0-12.37-6.27t-5.23-17.56a124.48,124.48,0,0,0-2.56-17.09c-.91-3.52-2.33-5.28-4.24-5.28h-1.57A12.7,12.7,0,0,0,998,420.53q-4.11,5.31-4.11,14.81,0,9.84,4.53,15.32c3,3.65,7.13,5.48,12.33,5.48v4.27q-9.5,0-14.89-6.77t-5.4-18.36a34.52,34.52,0,0,1,2.14-12.45,20.13,20.13,0,0,1,6.21-8.77,15.42,15.42,0,0,1,9.86-3.23h32.38a32.2,32.2,0,0,0,3.46-.17,18.32,18.32,0,0,0,2.89-.5,13.5,13.5,0,0,0,2.36-1A8.93,8.93,0,0,0,1051,408.42Zm-20.75,6.8h-14.33a29.84,29.84,0,0,1,2.7,8.71q1,5.63,1.68,12.42,1,10.13,4.08,15.4t10,5.29a12.53,12.53,0,0,0,10.48-4.89q3.79-4.89,3.79-14.06a27.85,27.85,0,0,0-2.33-11.55,20.47,20.47,0,0,0-6.46-8.26A15.69,15.69,0,0,0,1030.21,415.22Z"/><path class="cls-2" d="M1051.46,381.94a17.65,17.65,0,0,1-.62,4.36,7.18,7.18,0,0,1-3.09,4.1q-2.48,1.71-8,1.71H963.1v-4.32h76.33a12.85,12.85,0,0,0,5.71-1,4.65,4.65,0,0,0,2.36-2.36,7.84,7.84,0,0,0,.53-2.75,19.57,19.57,0,0,0-.17-2.7,19.19,19.19,0,0,0-.33-2H1051c.11.49.22,1.15.33,2A22.38,22.38,0,0,1,1051.46,381.94Z"/><path class="cls-2" d="M974.9,360.86a4.2,4.2,0,0,1-1.07,2.9,3.52,3.52,0,0,1-2.75,1.21,3.46,3.46,0,0,1-2.7-1.21,4.24,4.24,0,0,1-1.07-2.9,4.11,4.11,0,0,1,1.07-2.86,3.47,3.47,0,0,1,2.7-1.18,3.53,3.53,0,0,1,2.75,1.18A4.06,4.06,0,0,1,974.9,360.86Zm76.06,2.08h-59.7v-4.27H1051Z"/><path class="cls-1" d="M1593.4,355.67l59.6-30.15,5.4,10.66L1607.32,362l11.43,22.59-8.52,4.31Z"/><path class="cls-1" d="M1623.53,417.32a27.28,27.28,0,0,1-3.21-13.4,23.33,23.33,0,0,1,3.8-12.1A25.37,25.37,0,0,1,1634.2,383a25.11,25.11,0,0,1,13-2.91,23.29,23.29,0,0,1,11.92,4.15,30,30,0,0,1,12.12,23.94,23.15,23.15,0,0,1-3.72,12.06,27.29,27.29,0,0,1-23.1,11.68,23,23,0,0,1-12-4.1A27.35,27.35,0,0,1,1623.53,417.32Zm8.12-4.11a12.79,12.79,0,0,0,5.1,5.52,13.75,13.75,0,0,0,7.21,1.75,18.59,18.59,0,0,0,8.08-2.16q6.2-3.13,8.39-8.51a13.47,13.47,0,0,0-9-17.76,16.62,16.62,0,0,0-11.83,1.7,18.43,18.43,0,0,0-6.52,5.26,13.93,13.93,0,0,0-2.85,6.87A12.65,12.65,0,0,0,1631.65,413.21Z"/><path class="cls-1" d="M1621.74,455.53l60.57-30.65,5.38,10.63-5.82,2.94a21.14,21.14,0,0,1,7.94,3.8,19.7,19.7,0,0,1,5.7,6.91,21,21,0,0,1,2.31,10.88,20.7,20.7,0,0,1-3.91,10.82,28.3,28.3,0,0,1-10.71,8.74,29.82,29.82,0,0,1-13.64,3.63,20.58,20.58,0,0,1-11.1-3.14,21,21,0,0,1-7.48-8.4,19.13,19.13,0,0,1-2.1-8.73,21.8,21.8,0,0,1,1.8-8.73l-23.56,11.92Zm41.87-7.84a11,11,0,0,0-4.79,4.43,12.81,12.81,0,0,0-.3,12.1,11.91,11.91,0,0,0,7.4,6.18q5.05,1.58,11.72-1.79t8.43-8.38a12,12,0,0,0-.68-9.61,12.69,12.69,0,0,0-4.05-4.69,12.43,12.43,0,0,0-5.81-2.27,10.9,10.9,0,0,0-6.34,1.21Z"/><path class="cls-1" d="M1647.36,506.16l60.57-30.65,5.38,10.63-5.82,2.94a21.21,21.21,0,0,1,7.94,3.8,19.7,19.7,0,0,1,5.7,6.91,21,21,0,0,1,2.31,10.88,20.72,20.72,0,0,1-3.92,10.82,28.17,28.17,0,0,1-10.7,8.74,29.57,29.57,0,0,1-13.64,3.63,20.58,20.58,0,0,1-11.1-3.14,21,21,0,0,1-7.48-8.4,19.1,19.1,0,0,1-2.1-8.73,21.39,21.39,0,0,1,1.8-8.72l-23.56,11.92Zm41.87-7.84a11,11,0,0,0-4.79,4.43,12.81,12.81,0,0,0-.3,12.1,11.92,11.92,0,0,0,7.39,6.18q5.07,1.58,11.73-1.79t8.43-8.38a12,12,0,0,0-.68-9.6,12.65,12.65,0,0,0-4-4.7,12.47,12.47,0,0,0-5.81-2.27,11,11,0,0,0-6.35,1.21Z"/><path class="cls-1" d="M1697.27,563a18,18,0,0,1-2.26-8.27,12.88,12.88,0,0,1,1.79-6.51,17.72,17.72,0,0,1,4.44-5,35.65,35.65,0,0,1,5.76-3.66l26.55-13.43,5.4,10.67-23.8,12a26.69,26.69,0,0,0-5.1,3.32,8.79,8.79,0,0,0-3,4.35,8.09,8.09,0,0,0,1,5.85,10.65,10.65,0,0,0,4.39,4.71,11.84,11.84,0,0,0,6,1.46,14,14,0,0,0,6.17-1.55l23.56-11.92,5.38,10.63-42.92,21.71-5.37-10.62,6.38-3.24a17.55,17.55,0,0,1-8.15-3.11A19.71,19.71,0,0,1,1697.27,563Z"/><path class="cls-1" d="M1722.91,613.84a32.43,32.43,0,0,1-3.3-10.28,18.5,18.5,0,0,1,.93-9.35,12,12,0,0,1,6.08-6.45l.92-.47,5.34,10.55-1,.49a5.18,5.18,0,0,0-3,4.57,14.73,14.73,0,0,0,1.92,7.3,15,15,0,0,0,4.41,5.41,4.71,4.71,0,0,0,5.22.68,4.43,4.43,0,0,0,2.6-4.44,36.09,36.09,0,0,0-2.08-9.07,57.92,57.92,0,0,1-1.7-6.78,27.27,27.27,0,0,1-.46-6.72,13.61,13.61,0,0,1,1.67-5.84,10.56,10.56,0,0,1,4.66-4.23,11.54,11.54,0,0,1,8.41-1,17.66,17.66,0,0,1,7.77,4.65,32.06,32.06,0,0,1,6.17,8.57,29.66,29.66,0,0,1,3.07,9.92,18.15,18.15,0,0,1-1.12,9.17,12.31,12.31,0,0,1-6.12,6.37l-.65.33-5.29-10.47.6-.3c2.21-1.12,3.33-2.75,3.34-4.89a13.29,13.29,0,0,0-1.51-6.24,16.36,16.36,0,0,0-2.49-3.63,8.58,8.58,0,0,0-3.23-2.33,4.16,4.16,0,0,0-3.52.23c-1.75.89-2.55,2.49-2.4,4.82a35.21,35.21,0,0,0,1.8,8.43q1,3.15,1.71,6.59a28.85,28.85,0,0,1,.63,6.71,13.41,13.41,0,0,1-1.54,6,10.68,10.68,0,0,1-4.8,4.4,11.84,11.84,0,0,1-9,1.07,18.21,18.21,0,0,1-7.93-5A35.58,35.58,0,0,1,1722.91,613.84Z"/><path class="cls-1" d="M1758.58,682.13l-5.32-10.51a7.79,7.79,0,0,1,.72-1.35,12.16,12.16,0,0,1,1.46-1.88,11.84,11.84,0,0,1,1.27-1.1,19.26,19.26,0,0,1-7.42-4.72,30.56,30.56,0,0,1-5.77-8q-3.63-7.2-2.54-13.41a12.46,12.46,0,0,1,7.15-9.28,11.59,11.59,0,0,1,8.33-1.19,16.55,16.55,0,0,1,7.38,4.41,44.62,44.62,0,0,1,6.46,8.1,91.29,91.29,0,0,0,6.68,9.54c1.49,1.7,2.74,2.29,3.77,1.77l.44-.23a6.31,6.31,0,0,0,3.38-5q.54-3.63-1.8-8.28-2.48-4.89-5.84-6.31a8,8,0,0,0-7,.44l-5.32-10.51a15.48,15.48,0,0,1,9.89-1.68,18.38,18.38,0,0,1,9,4.57,32.11,32.11,0,0,1,7.16,9.63,34.12,34.12,0,0,1,3.5,11,19.15,19.15,0,0,1-1.21,10.05,14,14,0,0,1-6.92,7.08l-19.56,9.9c-1,.51-2,1.05-3,1.62a15.09,15.09,0,0,0-2.43,1.76,9.84,9.84,0,0,0-1.71,2.09A8.94,8.94,0,0,0,1758.58,682.13Zm10-21.46,4-2a44.34,44.34,0,0,1-3.8-4.55q-1.87-2.58-3.66-5.38a24.06,24.06,0,0,0-5.29-6.3,4.72,4.72,0,0,0-5.31-.31,6.07,6.07,0,0,0-3.45,4.26c-.42,1.88.06,4.19,1.44,6.91a15.39,15.39,0,0,0,6.65,6.88A11.39,11.39,0,0,0,1768.58,660.67Z"/><path class="cls-1" d="M1777,718.45l24.12-12.2a21.3,21.3,0,0,0,5-3.41,8.37,8.37,0,0,0,2.59-4.56,9.64,9.64,0,0,0-1.25-6.14,11.45,11.45,0,0,0-6.84-6.08,12.12,12.12,0,0,0-9.45,1.08l-23.88,12.08-5.38-10.63,42.91-21.71,5.38,10.63-6.87,3.47a18.59,18.59,0,0,1,8.83,3.56,20.88,20.88,0,0,1,6.33,7.55q3.93,7.75,1.26,13.62t-10.18,9.67l-27.15,13.74Z"/><path class="cls-1" d="M1807.85,779.51,1802.54,769a7.54,7.54,0,0,1,.71-1.35,10.34,10.34,0,0,1,2.73-3,19.41,19.41,0,0,1-7.42-4.72,30.56,30.56,0,0,1-5.77-8q-3.63-7.2-2.54-13.41a12.45,12.45,0,0,1,7.16-9.28,11.56,11.56,0,0,1,8.32-1.19,16.72,16.72,0,0,1,7.39,4.41,45.05,45.05,0,0,1,6.46,8.1,89.42,89.42,0,0,0,6.67,9.54q2.24,2.55,3.77,1.77l.44-.22a6.33,6.33,0,0,0,3.38-5.06q.56-3.63-1.8-8.28-2.47-4.89-5.83-6.31a8,8,0,0,0-7,.44L1813.86,722a15.37,15.37,0,0,1,9.88-1.67,18.28,18.28,0,0,1,9,4.56,31.94,31.94,0,0,1,7.16,9.63,33.9,33.9,0,0,1,3.51,11,19.25,19.25,0,0,1-1.21,10.05,14,14,0,0,1-6.93,7.08l-19.55,9.9c-1,.51-2,1.06-3,1.62a15.26,15.26,0,0,0-2.43,1.76,9.61,9.61,0,0,0-1.72,2.09A10.32,10.32,0,0,0,1807.85,779.51Zm10-21.46,4-2a41.92,41.92,0,0,1-3.8-4.55c-1.26-1.71-2.48-3.51-3.66-5.38a24.43,24.43,0,0,0-5.3-6.3,4.72,4.72,0,0,0-5.31-.31,6.12,6.12,0,0,0-3.45,4.26q-.63,2.84,1.44,6.91a15.36,15.36,0,0,0,6.66,6.88A11.39,11.39,0,0,0,1817.86,758.05Z"/><path class="cls-1" d="M1819.7,804.93a30.58,30.58,0,0,1-2-4.92,14.42,14.42,0,0,1-.59-5.28,10.11,10.11,0,0,1,1.91-5.11,14.81,14.81,0,0,1,5.55-4.38l23.88-12.08-5.24-10.35,8-4,2,4a15.78,15.78,0,0,0,2.55,3.93,3,3,0,0,0,2.94.7,26.34,26.34,0,0,0,5.3-2.17l5.74-2.91,5.39,10.67-13.33,6.75,6.48,12.81-8,4-6.48-12.81-21.14,10.69a12.92,12.92,0,0,0-4.4,3.29c-.91,1.17-.9,2.68,0,4.51a13.24,13.24,0,0,0,1.46,2.28,11.09,11.09,0,0,0,1.37,1.51l-7.84,4a20.08,20.08,0,0,1-1.7-2A19.41,19.41,0,0,1,1819.7,804.93Z"/></svg>